<?xml version="1.0" encoding="UTF-8" standalone="no"?>
<svg width="40px" height="40px" viewBox="0 0 256 68" version="1.1" xmlns="http://www.w3.org/2000/svg" xmlns:xlink="http://www.w3.org/1999/xlink" preserveAspectRatio="xMidYMid">
    <defs>
        <radialGradient cx="50%" cy="54.6521962%" fx="50%" fy="54.6521962%" r="66.2633343%" id="radialGradient-1">
            <stop stop-color="#FFB900" offset="0%"></stop>
            <stop stop-color="#F95D8F" offset="60%"></stop>
            <stop stop-color="#F95353" offset="99.91%"></stop>
        </radialGradient>
    </defs>
	<g>
		<path 
            d="M155.732542,47.3578088 C144.107001,47.3578088 134.684302,56.780873 134.684302,68.4053181 C134.684302,80.0304936 144.107001,89.4542882 155.732542,89.4542882 C167.356622,89.4542882 176.780051,80.0304936 176.780051,68.4053181 C176.780051,56.780873 167.356622,47.3578088 155.732542,47.3578088 L155.732542,47.3578088 Z M101.047874,47.3592696 C89.4237946,47.3592696 80,56.780873 80,68.4064137 C80,80.0304936 89.4237946,89.4542882 101.047874,89.4542882 C112.672685,89.4542882 122.096845,80.0304936 122.096845,68.4064137 C122.096845,56.780873 112.672685,47.3592696 101.047874,47.3592696 L101.047874,47.3592696 Z M149.437352,21.0475093 C149.437352,32.6719544 140.014653,42.0972097 128.390573,42.0972097 C116.765398,42.0972097 107.342334,32.6719544 107.342334,21.0475093 C107.342334,9.42379458 116.765398,0 128.390573,0 C140.014653,0 149.437352,9.42379458 149.437352,21.0475093 L149.437352,21.0475093 Z" 
            fill="url(#radialGradient-1)"
        ></path>
	</g>
</svg>
